# Blender v2.68 (sub 0) OBJ File: ''
# www.blender.org
mtllib coin.mtl
o Sphere
v -0.258819 0.965926 0.000000
v -0.500000 0.866025 0.000000
v -0.707107 0.707107 0.000000
v -0.866025 0.500000 0.000000
v -0.965926 0.258819 0.000000
v -1.000000 0.000000 0.000000
v -0.965926 -0.258819 0.000000
v -0.866026 -0.500000 0.000000
v -0.707107 -0.707107 0.000000
v -0.500000 -0.866025 0.000000
v -0.258819 -0.965926 0.000000
v -0.000000 -1.000000 0.000000
v -0.239118 0.965926 -0.099046
v -0.461940 0.866025 -0.191342
v -0.653282 0.707107 -0.270598
v -0.800103 0.500000 -0.331413
v -0.892399 0.258819 -0.369644
v -0.923880 0.000000 -0.382683
v -0.892399 -0.258819 -0.369644
v -0.800103 -0.500000 -0.331413
v -0.653282 -0.707107 -0.270598
v -0.461940 -0.866025 -0.191342
v -0.239118 -0.965926 -0.099046
v -0.183013 0.965926 -0.183012
v -0.353554 0.866025 -0.353553
v -0.500000 0.707107 -0.500000
v -0.612373 0.500000 -0.612372
v -0.683013 0.258819 -0.683012
v -0.707107 0.000000 -0.707106
v -0.683013 -0.258819 -0.683012
v -0.612373 -0.500000 -0.612372
v -0.500000 -0.707107 -0.500000
v -0.353554 -0.866025 -0.353553
v -0.183013 -0.965926 -0.183013
v -0.099046 0.965926 -0.239117
v -0.191342 0.866025 -0.461939
v -0.270598 0.707107 -0.653281
v -0.331414 0.500000 -0.800103
v -0.369644 0.258819 -0.892399
v -0.382684 0.000000 -0.923879
v -0.369644 -0.258819 -0.892399
v -0.331414 -0.500000 -0.800103
v -0.270598 -0.707107 -0.653281
v -0.191342 -0.866025 -0.461940
v -0.099046 -0.965926 -0.239118
v -0.000000 0.965926 -0.258819
v -0.000000 0.866025 -0.500000
v -0.000000 0.707107 -0.707106
v -0.000000 0.500000 -0.866025
v -0.000000 0.258819 -0.965925
v -0.000000 0.000000 -0.999999
v -0.000000 -0.258819 -0.965925
v -0.000000 -0.500000 -0.866025
v -0.000000 -0.707107 -0.707106
v -0.000000 -0.866025 -0.500000
v -0.000000 -0.965926 -0.258819
v 0.099045 0.965926 -0.239117
v 0.191341 0.866025 -0.461939
v 0.270597 0.707107 -0.653281
v 0.331413 0.500000 -0.800103
v 0.369643 0.258819 -0.892399
v 0.382683 0.000000 -0.923879
v 0.369643 -0.258819 -0.892399
v 0.331413 -0.500000 -0.800103
v 0.270598 -0.707107 -0.653281
v 0.191341 -0.866025 -0.461940
v 0.099045 -0.965926 -0.239118
v -0.000001 1.000000 0.000000
v 0.183012 0.965926 -0.183012
v 0.353553 0.866025 -0.353553
v 0.499999 0.707107 -0.500000
v 0.612372 0.500000 -0.612372
v 0.683012 0.258819 -0.683012
v 0.707106 0.000000 -0.707106
v 0.683012 -0.258819 -0.683012
v 0.612372 -0.500000 -0.612372
v 0.499999 -0.707107 -0.500000
v 0.353553 -0.866025 -0.353553
v 0.183012 -0.965926 -0.183013
v 0.239117 0.965926 -0.099046
v 0.461939 0.866025 -0.191342
v 0.653281 0.707107 -0.270598
v 0.800102 0.500000 -0.331413
v 0.892398 0.258819 -0.369644
v 0.923879 0.000000 -0.382683
v 0.892398 -0.258819 -0.369644
v 0.800102 -0.500000 -0.331413
v 0.653281 -0.707107 -0.270598
v 0.461939 -0.866025 -0.191342
v 0.239117 -0.965926 -0.099046
v 0.258818 0.965926 0.000000
v 0.499999 0.866025 -0.000000
v 0.707106 0.707107 0.000000
v 0.866024 0.500000 0.000000
v 0.965925 0.258819 0.000000
v 0.999999 0.000000 0.000000
v 0.965925 -0.258819 -0.000000
v 0.866024 -0.500000 0.000000
v 0.707106 -0.707107 0.000000
v 0.499999 -0.866025 0.000000
v 0.258819 -0.965926 0.000000
v 0.239117 0.965926 0.099046
v 0.461939 0.866025 0.191342
v 0.653281 0.707107 0.270598
v 0.800102 0.500000 0.331413
v 0.892398 0.258819 0.369644
v 0.923878 0.000000 0.382683
v 0.892398 -0.258819 0.369644
v 0.800102 -0.500000 0.331413
v 0.653281 -0.707107 0.270598
v 0.461939 -0.866025 0.191342
v 0.239117 -0.965926 0.099046
v 0.183012 0.965926 0.183012
v 0.353553 0.866025 0.353553
v 0.499999 0.707107 0.500000
v 0.612372 0.500000 0.612372
v 0.683012 0.258819 0.683012
v 0.707106 0.000000 0.707106
v 0.683012 -0.258819 0.683012
v 0.612372 -0.500000 0.612372
v 0.499999 -0.707107 0.500000
v 0.353553 -0.866025 0.353553
v 0.183012 -0.965926 0.183013
v 0.099045 0.965926 0.239117
v 0.191341 0.866025 0.461939
v 0.270597 0.707107 0.653281
v 0.331413 0.500000 0.800103
v 0.369643 0.258819 0.892399
v 0.382683 0.000000 0.923879
v 0.369643 -0.258819 0.892399
v 0.331413 -0.500000 0.800103
v 0.270597 -0.707107 0.653281
v 0.191341 -0.866025 0.461939
v 0.099045 -0.965926 0.239118
v -0.000000 0.965926 0.258819
v -0.000000 0.866025 0.499999
v -0.000000 0.707107 0.707106
v -0.000000 0.500000 0.866025
v -0.000000 0.258819 0.965925
v -0.000000 0.000000 0.999999
v -0.000000 -0.258819 0.965925
v -0.000000 -0.500000 0.866025
v -0.000000 -0.707107 0.707106
v -0.000000 -0.866025 0.500000
v -0.000000 -0.965926 0.258819
v -0.099046 0.965926 0.239117
v -0.191342 0.866025 0.461939
v -0.270598 0.707107 0.653281
v -0.331414 0.500000 0.800103
v -0.369644 0.258819 0.892399
v -0.382684 0.000000 0.923879
v -0.369644 -0.258819 0.892399
v -0.331414 -0.500000 0.800103
v -0.270598 -0.707107 0.653281
v -0.191342 -0.866025 0.461939
v -0.099046 -0.965926 0.239118
v -0.183013 0.965926 0.183012
v -0.353553 0.866025 0.353553
v -0.500000 0.707107 0.500000
v -0.612372 0.500000 0.612372
v -0.683013 0.258819 0.683012
v -0.707107 0.000000 0.707106
v -0.683013 -0.258819 0.683012
v -0.612372 -0.500000 0.612372
v -0.500000 -0.707107 0.500000
v -0.353554 -0.866025 0.353553
v -0.183013 -0.965926 0.183013
v -0.239118 0.965926 0.099046
v -0.461940 0.866025 0.191341
v -0.653282 0.707107 0.270598
v -0.800103 0.500000 0.331413
v -0.892399 0.258819 0.369644
v -0.923879 0.000000 0.382683
v -0.892399 -0.258819 0.369644
v -0.800103 -0.500000 0.331413
v -0.653282 -0.707107 0.270598
v -0.461940 -0.866025 0.191341
v -0.239118 -0.965926 0.099046
vt 0.995917 0.559936
vt 0.987650 0.619154
vt 0.925081 0.625787
vt 0.931142 0.566802
vt 0.990964 0.499164
vt 0.928395 0.505797
vt 0.973126 0.440981
vt 0.917028 0.446928
vt 0.562683 0.654752
vt 0.530274 0.607727
vt 0.547011 0.591069
vt 0.595017 0.622571
vt 0.943620 0.389351
vt 0.897816 0.394207
vt 0.591424 0.695137
vt 0.637151 0.649625
vt 0.936919 0.162581
vt 0.975353 0.134885
vt 1.000000 0.194507
vt 0.954347 0.204740
vt 0.614536 0.726128
vt 0.670540 0.670388
vt 0.891182 0.194429
vt 0.900204 0.216252
vt 0.966724 0.672784
vt 0.910626 0.678731
vt 0.843508 0.628059
vt 0.846691 0.569155
vt 0.846822 0.508069
vt 0.843892 0.448965
vt 0.556109 0.569264
vt 0.612592 0.580448
vt 0.838101 0.395870
vt 0.662005 0.590054
vt 0.999968 0.259055
vt 0.954324 0.250383
vt 0.888763 0.722027
vt 0.829047 0.723690
vt 0.837490 0.680768
vt 0.900192 0.239878
vt 0.755350 0.625624
vt 0.755423 0.566634
vt 0.758663 0.505634
vt 0.764851 0.446781
vt 0.556181 0.545633
vt 0.612732 0.534796
vt 0.773564 0.394087
vt 0.662203 0.525493
vt 0.975261 0.318702
vt 0.936854 0.292560
vt 0.764510 0.721907
vt 0.758449 0.678585
vt 0.891148 0.261710
vt 0.904596 0.324850
vt 0.874451 0.278425
vt 0.685537 0.672515
vt 0.674026 0.618853
vt 0.671231 0.559624
vt 0.677340 0.498863
vt 0.691939 0.440711
vt 0.547218 0.523773
vt 0.595416 0.492566
vt 0.714032 0.389131
vt 0.637714 0.465771
vt 0.929642 0.364367
vt 0.704978 0.716951
vt 0.862461 0.342337
vt 0.852640 0.287477
vt 0.229498 0.006812
vt 0.283625 0.026415
vt 0.290947 0.082350
vt 0.237664 0.069199
vt 0.170094 0.000000
vt 0.178548 0.064587
vt 0.109462 0.006444
vt 0.117628 0.068830
vt 0.051734 0.025704
vt 0.059056 0.081638
vt 0.530583 0.507013
vt 0.563280 0.460187
vt 0.000844 0.056468
vt 0.006822 0.102138
vt 0.592268 0.419980
vt 0.870054 0.389099
vt 0.671231 0.445214
vt 0.615570 0.389131
vt 0.816865 0.342360
vt 0.829038 0.287489
vt 0.294778 0.155414
vt 0.241937 0.150691
vt 0.182972 0.148955
vt 0.121902 0.150323
vt 0.062887 0.154703
vt 0.508810 0.497903
vt 0.521217 0.442588
vt 0.009951 0.161795
vt 0.532781 0.395091
vt 0.805571 0.389131
vt 0.334766 0.103145
vt 0.337894 0.162801
vt 0.746009 0.364459
vt 0.774748 0.324915
vt 0.337696 0.227362
vt 0.294535 0.234485
vt 0.807236 0.278459
vt 0.241667 0.238883
vt 0.182692 0.240258
vt 0.121631 0.238515
vt 0.062644 0.233773
vt 0.485212 0.497830
vt 0.475630 0.442448
vt 0.009752 0.226356
vt 0.468311 0.394893
vt 0.700435 0.318840
vt 0.742522 0.292657
vt 0.334202 0.286999
vt 0.290256 0.307524
vt 0.790555 0.261761
vt 0.236893 0.320348
vt 0.177751 0.324596
vt 0.116858 0.319980
vt 0.058365 0.306813
vt 0.463383 0.506807
vt 0.433460 0.459789
vt 0.006258 0.285993
vt 0.408673 0.419417
vt 0.675788 0.259218
vt 0.725094 0.250498
vt 0.625088 0.026430
vt 0.675788 0.057506
vt 0.669530 0.103138
vt 0.617423 0.082318
vt 0.781534 0.239937
vt 0.567479 0.006816
vt 0.558930 0.069151
vt 0.506888 0.000000
vt 0.498037 0.064534
vt 0.168900 0.389131
vt 0.108309 0.382315
vt 0.050700 0.362701
vt 0.446646 0.523465
vt 0.401126 0.491971
vt 0.000000 0.331625
vt 0.362946 0.464928
vt 0.341586 0.102132
vt 0.385532 0.081607
vt 0.381252 0.154646
vt 0.338092 0.161769
vt 0.383551 0.534093
vt 0.338092 0.524499
vt 0.675820 0.194670
vt 0.725117 0.204855
vt 0.666035 0.162775
vt 0.613143 0.155357
vt 0.781545 0.216311
vt 0.554157 0.150616
vt 0.493096 0.148873
vt 0.438894 0.068783
vt 0.434121 0.150248
vt 0.437549 0.545269
vt 0.381010 0.233717
vt 0.337894 0.226330
vt 0.383411 0.579745
vt 0.337894 0.589060
vt 0.700527 0.135023
vt 0.742587 0.162679
vt 0.665837 0.227336
vt 0.612901 0.234428
vt 0.790589 0.194479
vt 0.553886 0.238808
vt 0.492816 0.240176
vt 0.433851 0.238440
vt 0.437476 0.568900
vt 0.384841 0.306781
vt 0.341022 0.285986
vt 0.400727 0.621975
vt 0.362383 0.648782
vt 0.746146 0.089358
vt 0.774845 0.130388
vt 0.668966 0.286992
vt 0.616732 0.307492
vt 0.807287 0.177764
vt 0.558159 0.320300
vt 0.497240 0.324543
vt 0.438124 0.319932
vt 0.446439 0.590760
vt 0.311464 0.439831
vt 0.331078 0.497440
vt 0.268743 0.505989
vt 0.255576 0.447496
vt 0.463074 0.607521
vt 0.432863 0.654354
vt 0.280388 0.389131
vt 0.234756 0.395389
vt 0.407829 0.694574
vt 0.805733 0.064626
vt 0.816979 0.112901
vt 0.674944 0.332663
vt 0.624054 0.363427
vt 0.829097 0.168712
vt 0.566326 0.382687
vt 0.505694 0.389131
vt 0.337894 0.558031
vt 0.273359 0.566881
vt 0.187278 0.510762
vt 0.182536 0.451775
vt 0.484848 0.616631
vt 0.474926 0.671954
vt 0.175119 0.398883
vt 0.467316 0.719463
vt 0.870217 0.064594
vt 0.862576 0.112878
vt 0.256287 0.679387
vt 0.235762 0.723333
vt 0.176125 0.726827
vt 0.183248 0.683666
vt 0.852700 0.168700
vt 0.269111 0.626024
vt 0.187646 0.630797
vt 0.189021 0.571823
vt 0.099086 0.511032
vt 0.103466 0.452018
vt 0.508445 0.616703
vt 0.520513 0.672093
vt 0.110558 0.399081
vt 0.531786 0.719661
vt 0.929779 0.089266
vt 0.904693 0.130323
vt 0.111564 0.727025
vt 0.104177 0.683909
vt 0.874501 0.177731
vt 0.099454 0.631068
vt 0.097718 0.572103
vt 0.841260 0.228257
vt 0.496405 0.557266
vt 0.013350 0.567679
vt 0.017593 0.506759
vt 0.030401 0.448187
vt 0.050901 0.395953
vt 0.051908 0.723897
vt 0.031113 0.680078
vt 0.017962 0.626795
vn -1.000000 0.000000 0.000000
vn -0.966979 0.254830 0.000000
vn -0.893368 0.254830 -0.370037
vn -0.923856 0.000000 -0.382672
vn -0.966979 -0.254830 0.000000
vn -0.893368 -0.254830 -0.370037
vn -0.869961 -0.493088 0.000000
vn -0.803735 -0.493088 -0.332896
vn -0.512009 0.858943 0.000000
vn -0.273904 0.961730 0.000000
vn -0.253029 0.961730 -0.104801
vn -0.473037 0.858943 -0.195929
vn -0.715049 -0.699057 0.000000
vn -0.660604 -0.699057 -0.273629
vn -0.715049 0.699057 0.000000
vn -0.660604 0.699057 -0.273629
vn -0.512009 -0.858943 0.000000
vn -0.473037 -0.858943 -0.195929
vn -0.869961 0.493088 0.000000
vn -0.803735 0.493088 -0.332896
vn -0.273904 -0.961730 0.000000
vn -0.253029 -0.961730 -0.104801
vn -0.683737 0.254830 -0.683737
vn -0.707083 0.000000 -0.707083
vn -0.683737 -0.254830 -0.683737
vn -0.615162 -0.493088 -0.615162
vn -0.193670 0.961730 -0.193670
vn -0.362041 0.858943 -0.362041
vn -0.505600 -0.699057 -0.505600
vn -0.505600 0.699057 -0.505600
vn -0.362041 -0.858943 -0.362041
vn -0.615162 0.493088 -0.615162
vn -0.193670 -0.961730 -0.193670
vn -0.370037 0.254830 -0.893368
vn -0.382672 0.000000 -0.923856
vn -0.370037 -0.254830 -0.893368
vn -0.332896 -0.493088 -0.803735
vn -0.104801 0.961730 -0.253029
vn -0.195929 0.858943 -0.473037
vn -0.273629 -0.699057 -0.660604
vn -0.273629 0.699057 -0.660604
vn -0.195929 -0.858943 -0.473037
vn -0.332896 0.493088 -0.803735
vn -0.104801 -0.961730 -0.253029
vn 0.000000 -0.858943 -0.512009
vn 0.000000 -0.961730 -0.273904
vn 0.000000 0.493088 -0.869961
vn 0.000000 0.254830 -0.966979
vn 0.000000 0.000000 -1.000000
vn 0.000000 -0.254830 -0.966979
vn 0.000000 -0.493088 -0.869961
vn 0.000000 0.961730 -0.273904
vn 0.000000 0.858943 -0.512009
vn 0.000000 -0.699057 -0.715049
vn 0.000000 0.699057 -0.715049
vn 0.195929 -0.858943 -0.473037
vn 0.104801 -0.961730 -0.253029
vn 0.332896 0.493088 -0.803735
vn 0.370037 0.254830 -0.893368
vn 0.382672 0.000000 -0.923856
vn 0.370037 -0.254830 -0.893368
vn 0.332896 -0.493088 -0.803735
vn 0.104801 0.961730 -0.253029
vn 0.195929 0.858943 -0.473037
vn 0.273629 -0.699057 -0.660604
vn 0.273629 0.699057 -0.660604
vn 0.362041 -0.858943 -0.362041
vn 0.193670 -0.961730 -0.193670
vn 0.615162 0.493088 -0.615162
vn 0.683737 0.254830 -0.683737
vn 0.707083 0.000000 -0.707083
vn 0.683737 -0.254830 -0.683737
vn 0.615162 -0.493088 -0.615162
vn 0.193670 0.961730 -0.193670
vn 0.362041 0.858943 -0.362041
vn 0.505600 -0.699057 -0.505600
vn 0.505600 0.699057 -0.505600
vn 0.660604 -0.699057 -0.273629
vn 0.473037 -0.858943 -0.195929
vn 0.660604 0.699057 -0.273629
vn 0.803735 0.493088 -0.332896
vn 0.253029 -0.961730 -0.104801
vn 0.893368 0.254830 -0.370037
vn 0.923856 0.000000 -0.382672
vn 0.893368 -0.254830 -0.370037
vn 0.803735 -0.493088 -0.332896
vn 0.253029 0.961730 -0.104801
vn 0.473037 0.858943 -0.195929
vn 0.715049 -0.699057 0.000000
vn 0.512009 -0.858943 0.000000
vn 0.715049 0.699057 0.000000
vn 0.869961 0.493088 0.000000
vn 0.273904 -0.961730 0.000000
vn 0.966979 0.254830 0.000000
vn 1.000000 0.000000 0.000000
vn 0.966979 -0.254830 0.000000
vn 0.869961 -0.493088 0.000000
vn 0.273904 0.961730 0.000000
vn 0.512009 0.858943 0.000000
vn 0.660604 -0.699057 0.273629
vn 0.473037 -0.858943 0.195929
vn 0.660604 0.699057 0.273629
vn 0.803735 0.493088 0.332896
vn 0.253029 -0.961730 0.104801
vn 0.893368 0.254830 0.370037
vn 0.923856 0.000000 0.382672
vn 0.893368 -0.254830 0.370037
vn 0.803735 -0.493088 0.332896
vn 0.253029 0.961730 0.104801
vn 0.473037 0.858943 0.195929
vn 0.615162 -0.493088 0.615162
vn 0.505600 -0.699057 0.505600
vn 0.362041 0.858943 0.362041
vn 0.505600 0.699057 0.505600
vn 0.362041 -0.858943 0.362041
vn 0.615162 0.493088 0.615162
vn 0.193670 -0.961730 0.193670
vn 0.683737 0.254830 0.683737
vn 0.707083 0.000000 0.707083
vn 0.683737 -0.254830 0.683737
vn 0.193670 0.961730 0.193670
vn 0.332896 -0.493088 0.803735
vn 0.273629 -0.699057 0.660604
vn 0.195929 0.858943 0.473037
vn 0.273629 0.699057 0.660604
vn 0.195929 -0.858943 0.473037
vn 0.332896 0.493088 0.803735
vn 0.104801 -0.961730 0.253029
vn 0.370037 0.254830 0.893368
vn 0.382672 0.000000 0.923856
vn 0.370037 -0.254830 0.893368
vn 0.104801 0.961730 0.253029
vn 0.000000 -0.493088 0.869961
vn 0.000000 -0.699057 0.715049
vn 0.000000 0.858943 0.512009
vn 0.000000 0.699057 0.715049
vn 0.000000 -0.858943 0.512009
vn 0.000000 0.493088 0.869961
vn 0.000000 -0.961730 0.273904
vn 0.000000 0.254830 0.966979
vn 0.000000 0.000000 1.000000
vn 0.000000 -0.254830 0.966979
vn 0.000000 0.961730 0.273904
vn -0.370037 -0.254830 0.893368
vn -0.332896 -0.493088 0.803735
vn -0.104801 0.961730 0.253029
vn -0.195929 0.858943 0.473037
vn -0.273629 -0.699057 0.660604
vn -0.273629 0.699057 0.660604
vn -0.195929 -0.858943 0.473037
vn -0.332896 0.493088 0.803735
vn -0.104801 -0.961730 0.253029
vn -0.370037 0.254830 0.893368
vn -0.382672 0.000000 0.923856
vn -0.683737 -0.254830 0.683737
vn -0.615162 -0.493088 0.615162
vn -0.193670 0.961730 0.193670
vn -0.362041 0.858943 0.362041
vn -0.505600 -0.699057 0.505600
vn -0.505600 0.699057 0.505600
vn -0.362041 -0.858943 0.362041
vn -0.615162 0.493088 0.615162
vn -0.193670 -0.961730 0.193670
vn -0.683737 0.254830 0.683737
vn -0.707083 0.000000 0.707083
vn -0.893368 -0.254830 0.370037
vn -0.803735 -0.493088 0.332896
vn -0.253029 0.961730 0.104801
vn -0.473037 0.858943 0.195929
vn -0.660604 -0.699057 0.273629
vn -0.660604 0.699057 0.273629
vn -0.473037 -0.858943 0.195929
vn -0.803735 0.493088 0.332896
vn -0.253029 -0.961730 0.104801
vn -0.893368 0.254830 0.370037
vn -0.923856 0.000000 0.382672
vn 0.000000 -1.000000 0.000000
vn 0.000000 1.000000 0.000000
usemtl None
s 1
f 6/1/1 5/2/2 17/3/3 18/4/4
f 7/5/5 6/1/1 18/4/4 19/6/6
f 8/7/7 7/5/5 19/6/6 20/8/8
f 2/9/9 1/10/10 13/11/11 14/12/12
f 9/13/13 8/7/7 20/8/8 21/14/14
f 3/15/15 2/9/9 14/12/12 15/16/16
f 10/17/17 9/18/13 21/19/14 22/20/18
f 4/21/19 3/15/15 15/16/16 16/22/20
f 11/23/21 10/17/17 22/20/18 23/24/22
f 5/2/2 4/25/19 16/26/20 17/3/3
f 18/4/4 17/3/3 28/27/23 29/28/24
f 19/6/6 18/4/4 29/28/24 30/29/25
f 20/8/8 19/6/6 30/29/25 31/30/26
f 14/12/12 13/11/11 24/31/27 25/32/28
f 21/14/14 20/8/8 31/30/26 32/33/29
f 15/16/16 14/12/12 25/32/28 26/34/30
f 22/20/18 21/19/14 32/35/29 33/36/31
f 16/26/20 15/37/16 26/38/30 27/39/32
f 23/24/22 22/20/18 33/36/31 34/40/33
f 17/3/3 16/26/20 27/39/32 28/27/23
f 29/28/24 28/27/23 39/41/34 40/42/35
f 30/29/25 29/28/24 40/42/35 41/43/36
f 31/30/26 30/29/25 41/43/36 42/44/37
f 25/32/28 24/31/27 35/45/38 36/46/39
f 32/33/29 31/30/26 42/44/37 43/47/40
f 26/34/30 25/32/28 36/46/39 37/48/41
f 33/36/31 32/35/29 43/49/40 44/50/42
f 27/39/32 26/38/30 37/51/41 38/52/43
f 34/40/33 33/36/31 44/50/42 45/53/44
f 28/27/23 27/39/32 38/52/43 39/41/34
f 45/53/44 44/50/42 55/54/45 56/55/46
f 39/41/34 38/52/43 49/56/47 50/57/48
f 40/42/35 39/41/34 50/57/48 51/58/49
f 41/43/36 40/42/35 51/58/49 52/59/50
f 42/44/37 41/43/36 52/59/50 53/60/51
f 36/46/39 35/45/38 46/61/52 47/62/53
f 43/47/40 42/44/37 53/60/51 54/63/54
f 37/48/41 36/46/39 47/62/53 48/64/55
f 44/50/42 43/49/40 54/65/54 55/54/45
f 38/52/43 37/51/41 48/66/55 49/56/47
f 56/55/46 55/54/45 66/67/56 67/68/57
f 50/69/48 49/70/47 60/71/58 61/72/59
f 51/73/49 50/69/48 61/72/59 62/74/60
f 52/75/50 51/73/49 62/74/60 63/76/61
f 53/77/51 52/75/50 63/76/61 64/78/62
f 47/62/53 46/61/52 57/79/63 58/80/64
f 54/81/54 53/77/51 64/78/62 65/82/65
f 48/64/55 47/62/53 58/80/64 59/83/66
f 55/54/45 54/65/54 65/84/65 66/67/56
f 49/85/47 48/64/55 59/83/66 60/86/58
f 67/68/57 66/67/56 78/87/67 79/88/68
f 61/72/59 60/71/58 72/89/69 73/90/70
f 62/74/60 61/72/59 73/90/70 74/91/71
f 63/76/61 62/74/60 74/91/71 75/92/72
f 64/78/62 63/76/61 75/92/72 76/93/73
f 58/80/64 57/79/63 69/94/74 70/95/75
f 65/82/65 64/78/62 76/93/73 77/96/76
f 59/83/66 58/80/64 70/95/75 71/97/77
f 66/67/56 65/84/65 77/98/76 78/87/67
f 60/71/58 59/99/66 71/100/77 72/89/69
f 78/87/67 77/98/76 88/101/78 89/102/79
f 72/89/69 71/100/77 82/103/80 83/104/81
f 79/88/68 78/87/67 89/102/79 90/105/82
f 73/90/70 72/89/69 83/104/81 84/106/83
f 74/91/71 73/90/70 84/106/83 85/107/84
f 75/92/72 74/91/71 85/107/84 86/108/85
f 76/93/73 75/92/72 86/108/85 87/109/86
f 70/95/75 69/94/74 80/110/87 81/111/88
f 77/96/76 76/93/73 87/109/86 88/112/78
f 71/97/77 70/95/75 81/111/88 82/113/80
f 89/102/79 88/101/78 99/114/89 100/115/90
f 83/104/81 82/103/80 93/116/91 94/117/92
f 90/105/82 89/102/79 100/115/90 101/118/93
f 84/106/83 83/104/81 94/117/92 95/119/94
f 85/107/84 84/106/83 95/119/94 96/120/95
f 86/108/85 85/107/84 96/120/95 97/121/96
f 87/109/86 86/108/85 97/121/96 98/122/97
f 81/111/88 80/110/87 91/123/98 92/124/99
f 88/112/78 87/109/86 98/122/97 99/125/89
f 82/113/80 81/111/88 92/124/99 93/126/91
f 100/115/90 99/114/89 110/127/100 111/128/101
f 94/129/92 93/130/91 104/131/102 105/132/103
f 101/118/93 100/115/90 111/128/101 112/133/104
f 95/134/94 94/129/92 105/132/103 106/135/105
f 96/136/95 95/134/94 106/135/105 107/137/106
f 97/121/96 96/120/95 107/138/106 108/139/107
f 98/122/97 97/121/96 108/139/107 109/140/108
f 92/124/99 91/123/98 102/141/109 103/142/110
f 99/125/89 98/122/97 109/140/108 110/143/100
f 93/126/91 92/124/99 103/142/110 104/144/102
f 110/145/100 109/146/108 120/147/111 121/148/112
f 104/144/102 103/142/110 114/149/113 115/150/114
f 111/128/101 110/127/100 121/151/112 122/152/115
f 105/132/103 104/131/102 115/153/114 116/154/116
f 112/133/104 111/128/101 122/152/115 123/155/117
f 106/135/105 105/132/103 116/154/116 117/156/118
f 107/137/106 106/135/105 117/156/118 118/157/119
f 108/158/107 107/137/106 118/157/119 119/159/120
f 109/146/108 108/158/107 119/159/120 120/147/111
f 103/142/110 102/141/109 113/160/121 114/149/113
f 121/148/112 120/147/111 131/161/122 132/162/123
f 115/150/114 114/149/113 125/163/124 126/164/125
f 122/152/115 121/151/112 132/165/123 133/166/126
f 116/154/116 115/153/114 126/167/125 127/168/127
f 123/155/117 122/152/115 133/166/126 134/169/128
f 117/156/118 116/154/116 127/168/127 128/170/129
f 118/157/119 117/156/118 128/170/129 129/171/130
f 119/159/120 118/157/119 129/171/130 130/172/131
f 120/147/111 119/159/120 130/172/131 131/161/122
f 114/149/113 113/160/121 124/173/132 125/163/124
f 132/162/123 131/161/122 142/174/133 143/175/134
f 126/164/125 125/163/124 136/176/135 137/177/136
f 133/166/126 132/165/123 143/178/134 144/179/137
f 127/168/127 126/167/125 137/180/136 138/181/138
f 134/169/128 133/166/126 144/179/137 145/182/139
f 128/170/129 127/168/127 138/181/138 139/183/140
f 129/171/130 128/170/129 139/183/140 140/184/141
f 130/172/131 129/171/130 140/184/141 141/185/142
f 131/161/122 130/172/131 141/185/142 142/174/133
f 125/163/124 124/173/132 135/186/143 136/176/135
f 142/187/133 141/188/142 152/189/144 153/190/145
f 136/176/135 135/186/143 146/191/146 147/192/147
f 143/193/134 142/187/133 153/190/145 154/194/148
f 137/177/136 136/176/135 147/192/147 148/195/149
f 144/179/137 143/178/134 154/196/148 155/197/150
f 138/181/138 137/180/136 148/198/149 149/199/151
f 145/182/139 144/179/137 155/197/150 156/200/152
f 139/183/140 138/181/138 149/199/151 150/201/153
f 140/184/141 139/183/140 150/201/153 151/202/154
f 141/188/142 140/203/141 151/204/154 152/189/144
f 153/190/145 152/189/144 163/205/155 164/206/156
f 147/192/147 146/191/146 157/207/157 158/208/158
f 154/194/148 153/190/145 164/206/156 165/209/159
f 148/195/149 147/192/147 158/208/158 159/210/160
f 155/197/150 154/196/148 165/211/159 166/212/161
f 149/213/151 148/214/149 159/215/160 160/216/162
f 156/200/152 155/197/150 166/212/161 167/217/163
f 150/218/153 149/213/151 160/216/162 161/219/164
f 151/204/154 150/218/153 161/219/164 162/220/165
f 152/189/144 151/204/154 162/220/165 163/205/155
f 164/206/156 163/205/155 174/221/166 175/222/167
f 158/208/158 157/207/157 168/223/168 169/224/169
f 165/209/159 164/206/156 175/222/167 176/225/170
f 159/210/160 158/208/158 169/224/169 170/226/171
f 166/212/161 165/211/159 176/227/170 177/228/172
f 160/216/162 159/215/160 170/229/171 171/230/173
f 167/217/163 166/212/161 177/228/172 178/231/174
f 161/219/164 160/216/162 171/230/173 172/232/175
f 162/220/165 161/219/164 172/232/175 173/233/176
f 163/205/155 162/220/165 173/233/176 174/221/166
f 12/234/177 11/23/21 23/24/22
f 1/10/10 68/235/178 13/11/11
f 12/234/177 23/24/22 34/40/33
f 13/11/11 68/235/178 24/31/27
f 12/234/177 34/40/33 45/53/44
f 24/31/27 68/235/178 35/45/38
f 12/234/177 45/53/44 56/55/46
f 35/45/38 68/235/178 46/61/52
f 12/234/177 56/55/46 67/68/57
f 46/61/52 68/235/178 57/79/63
f 12/234/177 67/68/57 79/88/68
f 57/79/63 68/235/178 69/94/74
f 12/234/177 79/88/68 90/105/82
f 69/94/74 68/235/178 80/110/87
f 12/234/177 90/105/82 101/118/93
f 80/110/87 68/235/178 91/123/98
f 12/234/177 101/118/93 112/133/104
f 91/123/98 68/235/178 102/141/109
f 12/234/177 112/133/104 123/155/117
f 102/141/109 68/235/178 113/160/121
f 12/234/177 123/155/117 134/169/128
f 113/160/121 68/235/178 124/173/132
f 12/234/177 134/169/128 145/182/139
f 124/173/132 68/235/178 135/186/143
f 12/234/177 145/182/139 156/200/152
f 135/186/143 68/235/178 146/191/146
f 12/234/177 156/200/152 167/217/163
f 146/191/146 68/235/178 157/207/157
f 12/234/177 167/217/163 178/231/174
f 157/207/157 68/235/178 168/223/168
f 174/221/166 173/233/176 6/236/1 7/237/5
f 168/223/168 68/235/178 1/10/10
f 175/222/167 174/221/166 7/237/5 8/238/7
f 169/224/169 168/223/168 1/10/10 2/9/9
f 176/225/170 175/222/167 8/238/7 9/239/13
f 170/226/171 169/224/169 2/9/9 3/15/15
f 177/228/172 176/227/170 9/18/13 10/17/17
f 171/230/173 170/229/171 3/240/15 4/241/19
f 178/231/174 177/228/172 10/17/17 11/23/21
f 172/232/175 171/230/173 4/241/19 5/242/2
f 12/234/177 178/231/174 11/23/21
f 173/233/176 172/232/175 5/242/2 6/236/1
